<?xml version="1.0" encoding="UTF-8" standalone="no"?>
<!-- Created with Inkscape (http://www.inkscape.org/) -->

<svg
   version="1.1"
   id="svg1"
   width="413.33334"
   height="812"
   viewBox="0 0 413.33334 812"
   sodipodi:docname="logo.svg"
   inkscape:version="1.3.2 (091e20e, 2023-11-25, custom)"
   xmlns:inkscape="http://www.inkscape.org/namespaces/inkscape"
   xmlns:sodipodi="http://sodipodi.sourceforge.net/DTD/sodipodi-0.dtd"
   xmlns="http://www.w3.org/2000/svg"
   xmlns:svg="http://www.w3.org/2000/svg">
  <defs
     id="defs1" />
  <sodipodi:namedview
     id="namedview1"
     pagecolor="#ffffff"
     bordercolor="#000000"
     borderopacity="0.25"
     inkscape:showpageshadow="2"
     inkscape:pageopacity="0.0"
     inkscape:pagecheckerboard="0"
     inkscape:deskcolor="#d1d1d1"
     showgrid="false"
     inkscape:zoom="1.5996985"
     inkscape:cx="149.40316"
     inkscape:cy="513.53428"
     inkscape:window-width="3840"
     inkscape:window-height="2054"
     inkscape:window-x="3829"
     inkscape:window-y="-11"
     inkscape:window-maximized="1"
     inkscape:current-layer="g1" />
  <g
     inkscape:groupmode="layer"
     inkscape:label="Image"
     id="g1">
    <path
       style="fill:#000000"
       d="m 158.7921,780.22455 c -52.23539,-9.24737 -81.978946,-32.12238 -91.819656,-70.61615 -6.7359,-26.34877 -5.20249,-59.45579 5.83233,-125.92287 10.12166,-60.96668 12.82946,-92.43574 10.68336,-124.15798 -2.05696,-30.4045 -3.86536,-39.25776 -18.1557,-88.88333 -9.82763,-34.12808 -12.50797,-47.8868 -13.69363,-70.29202 -1.66036,-31.37548 1.56877,-63.73252 10.04308,-100.63533 20.89134,-90.97482 64.875926,-152.723005 119.336026,-167.531058 11.51785,-3.131777 33.6488,-3.171622 45.10753,-0.08121 49.97728,13.478833 96.69836,66.629323 121.52431,138.247598 15.51276,44.75145 18.59598,97.14213 9.0228,153.31741 -3.71161,21.77964 -10.55979,45.59298 -22.79989,79.28257 -20.47281,56.34927 -22.98557,70.45483 -25.07026,140.73335 -2.11811,71.4054 -5.27776,102.11882 -14.19677,138 -14.22759,57.23758 -41.8237,90.2265 -82.5064,98.62975 -12.27075,2.53459 -38.73195,2.48955 -53.30713,-0.0907 z M 240.68819,345.4028 c 4.74122,-2.42475 8.76629,-5.78676 11.38559,-9.51003 3.85258,-5.47634 4.07377,-6.5113 4.50171,-21.06382 0.99341,-33.7821 -9.44164,-65.72701 -23.9151,-73.21153 -2.05472,-1.06254 -6.26851,-1.93189 -9.36396,-1.93189 -8.58537,0 -15.19931,7.59176 -21.5635,24.75149 -5.77689,15.5762 -7.91686,28.02268 -8.12361,47.24851 -0.13797,12.83013 0.16449,14.64157 3.6196,21.67774 6.05342,12.32752 15.01132,17.4042 28.84425,16.34681 4.43561,-0.33905 10.1472,-2.02235 14.61502,-4.30728 z M 175.03863,240.93005 c 9.48864,-3.59515 15.20044,-14.11171 18.37323,-33.82878 2.79175,-17.34911 2.64164,-25.75735 -0.55339,-30.99731 -3.42698,-5.62036 -7.33146,-7.53479 -13.64115,-6.68848 -13.45734,1.80501 -33.10977,29.11945 -33.08445,45.98331 0.0273,18.19303 14.51054,30.98546 28.90576,25.53126 z m 83.84428,-12.52987 c 12.43393,-5.19522 11.37725,-31.37642 -2.10133,-52.06414 -8.03061,-12.32586 -14.68893,-17.98384 -21.16339,-17.98384 -6.68755,0 -8.54746,2.3853 -9.1844,11.77885 -0.71783,10.58646 5.26953,40.12899 9.64663,47.59795 4.32742,7.38418 9.81763,11.39023 17.08784,12.46853 0.57355,0.0851 3.14515,-0.72374 5.71465,-1.79735 z"
       id="path1" />
  </g>
</svg>
